# xmcd
#
# Track frame offsets: 
#        150
#        11747
#        25965
#        42990
#        57167
#        71695
#        82597
#        96817
#        109377
#        121062
#        138162
#        156012
#
# Disc length: 2256 seconds
#
# Revision: 2
# Processed by: cddbd v1.4PL0 Copyright (c) Steve Scherf et al.
# Submitted via: ExactAudioCopy v0.90a11
#
DISCID=9208ce0c
DTITLE=Glen Campbell - Favorite Hymns
DYEAR=1900
DGENRE=
TTITLE0=Standing On The Promises
TTITLE1=What A Friend We Have In Jesus
TTITLE2=Softly And Tenderly
TTITLE3=Sweet Hour Of Praryer
TTITLE4=I Surrender All
TTITLE5=The Lord's Prayer
TTITLE6=Tall Oak Tree
TTITLE7=Sweet By And By
TTITLE8=I See Love
TTITLE9=Farther Along
TTITLE10=In The Garden
TTITLE11=Suddenly There's A Valley
EXTD=
EXTT0=
EXTT1=
EXTT2=
EXTT3=
EXTT4=
EXTT5=
EXTT6=
EXTT7=
EXTT8=
EXTT9=
EXTT10=
EXTT11=
PLAYORDER=
